<svg width="172" height="167" viewBox="0 0 172 167" fill="none" xmlns="http://www.w3.org/2000/svg">
<g id="rain">
<g id="Group 2">
<circle id="Ellipse 7" cx="86" cy="43" r="43" fill="white"/>
<circle id="Ellipse 10" cx="86" cy="66" r="43" fill="white"/>
<circle id="Ellipse 9" cx="129" cy="58" r="43" fill="white"/>
<circle id="Ellipse 8" cx="43" cy="58" r="43" fill="white"/>
</g>
<path id="Ellipse 11" d="M53 119.703C53 124.837 48.9706 129 44 129C39.0294 129 35 124.837 35 119.703C35 114.568 39.0294 105 44 105C48.9706 105 53 114.568 53 119.703Z" fill="#47BFFE"/>
<path id="Ellipse 13" d="M123 119.703C123 124.837 118.971 129 114 129C109.029 129 105 124.837 105 119.703C105 114.568 109.029 105 114 105C118.971 105 123 114.568 123 119.703Z" fill="#47BFFE"/>
<path id="Ellipse 15" d="M66 157.703C66 162.837 61.9706 167 57 167C52.0294 167 48 162.837 48 157.703C48 152.568 52.0294 143 57 143C61.9706 143 66 152.568 66 157.703Z" fill="#47BFFE"/>
<path id="Ellipse 14" d="M145 145.703C145 150.837 140.971 155 136 155C131.029 155 127 150.837 127 145.703C127 140.568 131.029 131 136 131C140.971 131 145 140.568 145 145.703Z" fill="#47BFFE"/>
<path id="Ellipse 16" d="M110 155.703C110 160.837 105.971 165 101 165C96.0294 165 92 160.837 92 155.703C92 150.568 96.0294 141 101 141C105.971 141 110 150.568 110 155.703Z" fill="#47BFFE"/>
<path id="Ellipse 12" d="M86 131.703C86 136.837 81.9706 141 77 141C72.0294 141 68 136.837 68 131.703C68 126.568 72.0294 117 77 117C81.9706 117 86 126.568 86 131.703Z" fill="#47BFFE"/>
</g>
</svg>
