<svg width="59" height="58" viewBox="0 0 59 58" fill="none" xmlns="http://www.w3.org/2000/svg">
<g id="yellow warning">
<g id="Group 32">
<path id="Vector 6" d="M2.44721 53.1056L27.2424 3.51516C27.9736 2.05273 30.0554 2.03797 30.8073 3.48988L56.488 53.0803C57.1774 54.4116 56.2112 56 54.712 56H4.23607C2.7493 56 1.78231 54.4354 2.44721 53.1056Z" fill="#FFBA08" stroke="black" stroke-width="3"/>
<path id="!" d="M30.6895 42.7959H27.2715C27.125 42.7959 27.0436 42.7145 27.0273 42.5518L25.9775 31.0527V17.4541C25.9775 17.2913 26.0426 17.21 26.1729 17.21H31.7881C31.9508 17.21 32.0322 17.2913 32.0322 17.4541L31.9834 31.0527L30.9336 42.5518C30.9173 42.7145 30.8359 42.7959 30.6895 42.7959ZM31.7881 52H26.1729C26.0426 52 25.9775 51.9186 25.9775 51.7559V46.3115C25.9775 46.165 26.0426 46.0918 26.1729 46.0918H31.7881C31.9183 46.0918 31.9834 46.165 31.9834 46.3115V51.7559C31.9834 51.9186 31.9183 52 31.7881 52Z" fill="black"/>
</g>
</g>
</svg>
